<svg xmlns="http://www.w3.org/2000/svg" width="111" height="45" viewBox="0 0 111 45"><defs><style>.a{fill:#fcfcfc;}.b{fill:none;}</style></defs><g transform="translate(-376 -228)"><g transform="translate(-38.934 -64.327)"><g transform="translate(472.569 304.21)"><g transform="translate(0.038 0)"><path class="a" d="M628.368,345.8a1.933,1.933,0,0,0,1.242-.448h0a1.318,1.318,0,0,0,.5-.985h0a1.61,1.61,0,0,0-.694-1.269h0a13.74,13.74,0,0,0-1.661-1.059h0a10.2,10.2,0,0,1-1.8-1.22h0a2.936,2.936,0,0,1-.967-2.229h0a2.881,2.881,0,0,1,1-2.184h0a3.78,3.78,0,0,1,2.529-.881h0a7.146,7.146,0,0,1,2.992.6h0l.258.116-.667,1.581-.268-.115a5.193,5.193,0,0,0-2.3-.5h0c-1.269.024-1.543.616-1.565,1.1h0a1.388,1.388,0,0,0,.6,1.131h0a16.024,16.024,0,0,0,1.694,1.086h0a12.513,12.513,0,0,1,1.89,1.291h0a3.063,3.063,0,0,1,1.068,2.335h0c-.016,1.99-1.962,3.326-3.918,3.326h-.026a7.211,7.211,0,0,1-3.445-.782h0l-.264-.122.717-1.534.257.107a6.549,6.549,0,0,0,2.827.651h0" transform="translate(-624.567 -335.52)"/></g><g transform="translate(10.085 0.18)"><path class="a" d="M668.947,347.738l-1.083-2.971H664.21l-1.109,2.788-.073.183h-1.941l4.684-11.562h1.054l4.27,11.562Zm-6.116-.29h0m2.019-4.3h2.422l-1.168-3.165-1.254,3.165Z" transform="translate(-661.087 -336.176)"/></g><g transform="translate(22.976 0.213)"><path class="a" d="M712.434,348.037a4.893,4.893,0,0,1-3.321-1.047h0a3.665,3.665,0,0,1-1.171-2.854h0V336.3h2.041v7.742a2.213,2.213,0,0,0,.6,1.751h0a2.923,2.923,0,0,0,2,.552h0a2.238,2.238,0,0,0,2.483-2.3h0V336.3h1.877v7.742a4.081,4.081,0,0,1-.907,2.513h0a4.409,4.409,0,0,1-3.585,1.487h-.016Z" transform="translate(-707.942 -336.295)"/></g><g transform="translate(36.517 0.213)"><path class="a" d="M757.162,347.824V336.3H759.2v9.848h4.054v1.681Z" transform="translate(-757.162 -336.295)"/></g><g transform="translate(44.345 0.213)"><path class="a" d="M3.48,11.529V1.68H0V0H9.017V1.68h-3.5v9.848Z" transform="translate(0)"/></g><path class="a" d="M630.919,406.124a4.451,4.451,0,0,1-2.666.7,3.984,3.984,0,0,1,0-7.962,4.469,4.469,0,0,1,2.5.586l-.3.735a4.5,4.5,0,0,0-2.16-.517,2.977,2.977,0,0,0-2.769,3.182,3.017,3.017,0,0,0,2.884,3.171,3.584,3.584,0,0,0,2.137-.54Z" transform="translate(-624.428 -381.437)"/><path class="a" d="M663.469,402.85a3.688,3.688,0,0,1-3.734,3.975c-2.24,0-3.734-1.539-3.734-3.975a3.7,3.7,0,0,1,3.734-3.987C662.136,398.863,663.469,400.518,663.469,402.85Zm-6.365,0c0,1.93,1.034,3.228,2.631,3.228s2.631-1.3,2.631-3.228-1.034-3.24-2.631-3.24S657.1,400.919,657.1,402.85Z" transform="translate(-647.315 -381.437)"/><path class="a" d="M694.61,406.3h2.838v.77h-3.86v-7.663h1.023Z" transform="translate(-674.561 -381.83)"/><path class="a" d="M717.536,406.3h2.838v.77h-3.861v-7.663h1.023Z" transform="translate(-691.179 -381.83)"/><path class="a" d="M743.772,407.069H739.44v-7.663h4.194v.77h-3.171v2.562h2.321v.77h-2.321V406.3h3.309Z" transform="translate(-707.799 -381.83)"/><path class="a" d="M767.588,406.825a3.982,3.982,0,0,1,0-7.962,5.239,5.239,0,0,1,2.516.506l-.3.747a5.178,5.178,0,0,0-2.172-.448,3.038,3.038,0,0,0-2.826,3.182,2.973,2.973,0,0,0,2.918,3.171,4.325,4.325,0,0,0,1.62-.253v-2.39h1.046v2.838A5.6,5.6,0,0,1,767.588,406.825Z" transform="translate(-725.388 -381.437)"/><path class="a" d="M802.532,407.069H798.2v-7.663h4.194v.77h-3.171v2.562h2.321v.77h-2.321V406.3h3.309Z" transform="translate(-750.393 -381.83)"/></g><g transform="translate(414.935 292.327)"><g transform="translate(12.73 0)"><path class="a" d="M482.02,302.832l0,0-9.738-10.5,0,0,0,0-9.738,10.5,0,0a5.042,5.042,0,0,0-1.051,5.048,6.309,6.309,0,0,0,.505,1.048,5.137,5.137,0,0,0,.518.691l0,0,2.409,2.574.033-.044-.249-.267,0,0a4.01,4.01,0,0,1-.4-.539,4.938,4.938,0,0,1-.392-.818,3.948,3.948,0,0,1,.816-3.938l0,0,7.557-8.185,7.557,8.185,0,0a3.949,3.949,0,0,1,.816,3.938,4.987,4.987,0,0,1-.392.818,4.079,4.079,0,0,1-.4.539l0,0-.25.267.033.044,2.409-2.574,0,0a5.181,5.181,0,0,0,.517-.691,6.35,6.35,0,0,0,.506-1.048A5.042,5.042,0,0,0,482.02,302.832Z" transform="translate(-461.207 -292.327)"/><path class="a" d="M491.7,343.033h0l-4.7-5.061-4.7,5.061h0a2.4,2.4,0,0,0-.5,2.405,2.988,2.988,0,0,0,.241.5,2.436,2.436,0,0,0,.246.329h0l4.72,5.04,4.72-5.04h0a2.458,2.458,0,0,0,.246-.329,2.976,2.976,0,0,0,.241-.5A2.4,2.4,0,0,0,491.7,343.033Z" transform="translate(-476.036 -325.414)"/></g><g transform="translate(25.006 23.65)"><path class="a" d="M518.191,398.7l0,0,13.959-3.2v0l.005,0-4.246-13.678v0a5.042,5.042,0,0,0-3.851-3.43,6.386,6.386,0,0,0-1.161-.084,5.139,5.139,0,0,0-.857.1v-.006l-3.433.8.022.051.356-.083v0a4.063,4.063,0,0,1,.667-.08,4.994,4.994,0,0,1,.9.068,3.948,3.948,0,0,1,3.006,2.672v0l3.325,10.632-10.863,2.468h0a3.95,3.95,0,0,1-3.821-1.257,4.97,4.97,0,0,1-.513-.748,3.981,3.981,0,0,1-.267-.617l0,0-.107-.349-.055.006,1.03,3.372.005,0a5.188,5.188,0,0,0,.34.793,6.284,6.284,0,0,0,.657.961A5.042,5.042,0,0,0,518.191,398.7Z" transform="translate(-509.765 -378.291)"/><path class="a" d="M510.654,397.455h0l6.732-1.552-2.041-6.6v0a2.4,2.4,0,0,0-1.834-1.633,3.055,3.055,0,0,0-.553-.041,2.531,2.531,0,0,0-.408.049v0l-6.722,1.577,2.014,6.6h0a2.454,2.454,0,0,0,.162.378,3.031,3.031,0,0,0,.312.458A2.4,2.4,0,0,0,510.654,397.455Z" transform="translate(-505.828 -385.058)"/></g><g transform="translate(0 23.65)"><path class="a" d="M428.9,398.7l0,0-13.959-3.2v0l0,0,4.246-13.678v0a5.042,5.042,0,0,1,3.851-3.43,6.383,6.383,0,0,1,1.161-.084,5.14,5.14,0,0,1,.857.1v-.006l3.433.8-.022.051-.356-.083v0a4.067,4.067,0,0,0-.667-.08,4.994,4.994,0,0,0-.9.068,3.949,3.949,0,0,0-3.006,2.672v0L420.2,392.461l10.863,2.468h0a3.949,3.949,0,0,0,3.82-1.257,4.992,4.992,0,0,0,.513-.748,4.009,4.009,0,0,0,.267-.617l0,0,.107-.349.054.006-1.029,3.372-.006,0a5.155,5.155,0,0,1-.34.793,6.287,6.287,0,0,1-.657.961A5.041,5.041,0,0,1,428.9,398.7Z" transform="translate(-414.935 -378.291)"/><path class="a" d="M461.047,397.455h0l-6.732-1.552,2.041-6.6v0a2.4,2.4,0,0,1,1.834-1.633,3.056,3.056,0,0,1,.553-.041,2.54,2.54,0,0,1,.408.049v0l6.722,1.577-2.014,6.6h0a2.435,2.435,0,0,1-.162.378,3.058,3.058,0,0,1-.312.458A2.4,2.4,0,0,1,461.047,397.455Z" transform="translate(-443.48 -385.058)"/></g></g></g><rect class="b" width="111" height="45" transform="translate(376 228)"/></g></svg>